REM DIRINDEX 1\2,1\3,1\4,1\5
REM DIRNAME folder01,folder02,folder03,folder04,folder05
TITLE ""
FILE "1800_047.mp3" MP3
  TRACK 01 AUDIO
    TITLE "2:cjc044_1069"
    INDEX 01 00:00:00
  TRACK 02 AUDIO
    TITLE "0:"
    INDEX 01 00:00:66
  TRACK 03 AUDIO
    TITLE "3:cjc044_1070"
    INDEX 01 00:01:50
  TRACK 04 AUDIO
    TITLE "0:"
    INDEX 01 00:03:04
  TRACK 05 AUDIO
    TITLE "4:cjc044_1071"
    INDEX 01 00:03:59
  TRACK 06 AUDIO
    TITLE "0:"
    INDEX 01 00:04:60
  TRACK 07 AUDIO
    TITLE "5:cjc044_1072"
    INDEX 01 00:05:42
  TRACK 08 AUDIO
    TITLE "0:"
    INDEX 01 00:09:08
  TRACK 09 AUDIO
    TITLE "2:cjc044_1073"
    INDEX 01 00:10:65
  TRACK 10 AUDIO
    TITLE "0:"
    INDEX 01 00:11:68
  TRACK 11 AUDIO
    TITLE "3:cjc044_1074"
    INDEX 01 00:12:50
  TRACK 12 AUDIO
    TITLE "0:"
    INDEX 01 00:13:37
  TRACK 13 AUDIO
    TITLE "4:cjc044_1075"
    INDEX 01 00:14:15
  TRACK 14 AUDIO
    TITLE "0:"
    INDEX 01 00:15:17
  TRACK 15 AUDIO
    TITLE "5:cjc044_1076"
    INDEX 01 00:16:00
  TRACK 16 AUDIO
    TITLE "0:"
    INDEX 01 00:19:40
  TRACK 17 AUDIO
    TITLE "2:cjc044_1077"
    INDEX 01 00:21:21
  TRACK 18 AUDIO
    TITLE "0:"
    INDEX 01 00:22:30
  TRACK 19 AUDIO
    TITLE "3:cjc044_1078"
    INDEX 01 00:23:12
  TRACK 20 AUDIO
    TITLE "0:"
    INDEX 01 00:23:73
  TRACK 21 AUDIO
    TITLE "4:cjc044_1079"
    INDEX 01 00:24:59
  TRACK 22 AUDIO
    TITLE "0:"
    INDEX 01 00:25:68
  TRACK 23 AUDIO
    TITLE "5:cjc044_1080"
    INDEX 01 00:26:42
  TRACK 24 AUDIO
    TITLE "0:"
    INDEX 01 00:28:68
  TRACK 25 AUDIO
    TITLE "2:cjc044_1081"
    INDEX 01 00:30:50
  TRACK 26 AUDIO
    TITLE "0:"
    INDEX 01 00:31:51
  TRACK 27 AUDIO
    TITLE "3:cjc044_1082"
    INDEX 01 00:32:41
  TRACK 28 AUDIO
    TITLE "0:"
    INDEX 01 00:33:28
  TRACK 29 AUDIO
    TITLE "4:cjc044_1083"
    INDEX 01 00:34:10
  TRACK 30 AUDIO
    TITLE "0:"
    INDEX 01 00:35:08
  TRACK 31 AUDIO
    TITLE "5:cjc044_1084"
    INDEX 01 00:35:66
  TRACK 32 AUDIO
    TITLE "0:"
    INDEX 01 00:39:09
  TRACK 33 AUDIO
    TITLE "2:cjc044_1085"
    INDEX 01 00:40:66
  TRACK 34 AUDIO
    TITLE "0:"
    INDEX 01 00:42:00
  TRACK 35 AUDIO
    TITLE "3:cjc044_1086"
    INDEX 01 00:42:63
  TRACK 36 AUDIO
    TITLE "0:"
    INDEX 01 00:43:56
  TRACK 37 AUDIO
    TITLE "4:cjc044_1087"
    INDEX 01 00:44:44
  TRACK 38 AUDIO
    TITLE "0:"
    INDEX 01 00:45:51
  TRACK 39 AUDIO
    TITLE "5:cjc044_1088"
    INDEX 01 00:46:25
  TRACK 40 AUDIO
    TITLE "0:"
    INDEX 01 00:49:18
  TRACK 41 AUDIO
    TITLE "2:cjc044_1089"
    INDEX 01 00:51:07
  TRACK 42 AUDIO
    TITLE "0:"
    INDEX 01 00:52:14
  TRACK 43 AUDIO
    TITLE "3:cjc044_1090"
    INDEX 01 00:52:69
  TRACK 44 AUDIO
    TITLE "0:"
    INDEX 01 00:53:58
  TRACK 45 AUDIO
    TITLE "4:cjc044_1091"
    INDEX 01 00:54:46
  TRACK 46 AUDIO
    TITLE "0:"
    INDEX 01 00:55:53
  TRACK 47 AUDIO
    TITLE "5:cjc044_1092"
    INDEX 01 00:56:33
  TRACK 48 AUDIO
    TITLE "0:"
    INDEX 01 01:00:66
  TRACK 49 AUDIO
    TITLE "2:cjc044_1093"
    INDEX 01 01:02:50
  TRACK 50 AUDIO
    TITLE "0:"
    INDEX 01 01:03:51
  TRACK 51 AUDIO
    TITLE "3:cjc044_1094"
    INDEX 01 01:04:29
  TRACK 52 AUDIO
    TITLE "0:"
    INDEX 01 01:06:18
  TRACK 53 AUDIO
    TITLE "4:cjc044_1095"
    INDEX 01 01:06:71
  TRACK 54 AUDIO
    TITLE "0:"
    INDEX 01 01:07:74
  TRACK 55 AUDIO
    TITLE "5:cjc044_1096"
    INDEX 01 01:08:48
  TRACK 56 AUDIO
    TITLE "0:"
    INDEX 01 01:11:41
  TRACK 57 AUDIO
    TITLE "2:cjc044_1097"
    INDEX 01 01:13:24
  TRACK 58 AUDIO
    TITLE "0:"
    INDEX 01 01:14:23
  TRACK 59 AUDIO
    TITLE "3:cjc044_1098"
    INDEX 01 01:15:05
  TRACK 60 AUDIO
    TITLE "0:"
    INDEX 01 01:16:01
  TRACK 61 AUDIO
    TITLE "4:cjc044_1099"
    INDEX 01 01:16:58
  TRACK 62 AUDIO
    TITLE "0:"
    INDEX 01 01:17:59
  TRACK 63 AUDIO
    TITLE "5:cjc044_1100"
    INDEX 01 01:18:35
  TRACK 64 AUDIO
    TITLE "0:"
    INDEX 01 01:21:51
